<svg id="icon-cashew" xmlns="http://www.w3.org/2000/svg" xmlns:xlink="http://www.w3.org/1999/xlink" width="30" height="30" viewBox="0 0 30 30">
  <defs>
    <clipPath id="clip-path-cashew">
      <rect id="Rectangle_47" data-name="Rectangle 47" width="30" height="30" fill="none"/>
    </clipPath>
    <clipPath id="clip-path-cashew-2">
      <rect id="Rectangle_48" data-name="Rectangle 48" width="15.13" height="16.429" fill="none"/>
    </clipPath>
  </defs>
  <g id="icon-cashew-2" data-name="icon-cashew" clip-path="url(#clip-path-cashew)">
    <g id="Group_76" data-name="Group 76" transform="translate(8.435 6.786)">
      <g id="Group_75" data-name="Group 75" transform="translate(0 0)" clip-path="url(#clip-path-cashew-2)">
        <path id="Path_249" data-name="Path 249" d="M10.934,3.3A6.547,6.547,0,0,0,3.632.235c-3.012.894-2.4,2.323-2.195,2.706a2.067,2.067,0,0,0,1.991.741A5.431,5.431,0,0,1,6.262,4.6,2.866,2.866,0,0,1,7.309,7.281,2.073,2.073,0,0,0,8.84,9.374a2.435,2.435,0,0,0,1.966-.587c.613-.459,1.276-3.319.128-5.489M5.054,1.57a4.723,4.723,0,0,0-2.546.62A.23.23,0,1,1,2.255,1.8,5.07,5.07,0,0,1,5.074,1.11a.231.231,0,0,1,.22.24.227.227,0,0,1-.24.22m5.242,5.8a.231.231,0,0,1-.23.221h-.009a.23.23,0,0,1-.221-.239C9.909,5.463,9.8,3.908,7.716,2.493a5.593,5.593,0,0,0-1.4-.695.23.23,0,0,1,.142-.438,6.033,6.033,0,0,1,1.514.751c2.276,1.545,2.4,3.294,2.321,5.255" transform="translate(-0.481 0)" fill="#DBBA7D"/>
        <path id="Path_250" data-name="Path 250" d="M13.466,12.98c-1.225-.23-1.761.74-2.476,1.991A2.694,2.694,0,0,1,7.9,16.094c-1.072-.2-2.527-2.323-2.527-2.323a3.171,3.171,0,0,0-3.829-.587A3.134,3.134,0,0,0,.37,17.268c1.174,2.247,3.727,4.238,7.863,4.085a7.7,7.7,0,0,0,6.842-5.693c.255-1.71-.383-2.45-1.608-2.68M9.647,19.646a7.367,7.367,0,0,1-1.853.228H7.667a7.007,7.007,0,0,1-6.623-4.421.23.23,0,0,1,.147-.29.228.228,0,0,1,.29.146,6.436,6.436,0,0,0,6.193,4.106A6.973,6.973,0,0,0,9.53,19.2a.231.231,0,0,1,.117.446m4.653-4.43a7.263,7.263,0,0,1-1.884,2.9.23.23,0,1,1-.314-.336,6.918,6.918,0,0,0,1.756-2.7.231.231,0,0,1,.442.133" transform="translate(0 -4.932)" fill="#DBBA7D"/>
      </g>
    </g>
  </g>
</svg>