<svg id="icon-celery-allergens" xmlns="http://www.w3.org/2000/svg" width="30" height="30" viewBox="0 0 30 30">
  <g id="celery-icon" transform="translate(7.882 5.67)">
    <g transform="translate(0.401 -0.417)">
      <path d="M5.05,6.267a3.247,3.247,0,0,1,.1-1.795A.378.378,0,0,0,5.106,4.1c-.643-.8-1.5-1.183-2.147-.873a1.691,1.691,0,0,0-.745,1.741,1.966,1.966,0,0,0-2.07.9c-.46.953.225,2.237,1.53,2.868A5.372,5.372,0,0,0,6,8.374a.255.255,0,0,0,.053-.357,6.854,6.854,0,0,1-1-1.751" transform="translate(0 -1.371)" fill="#8EC68E"/>
      <path d="M17.728,6.221a1.964,1.964,0,0,0-1.965-1.113A1.692,1.692,0,0,0,15.2,3.3c-.632-.387-1.558-.064-2.292.713a2.329,2.329,0,0,0-2.681.488c-.685.978.006,2.643,1.542,3.719a4.407,4.407,0,0,0,2.476.852,3.255,3.255,0,0,0,1.658-.156c1.364-.492,2.179-1.7,1.82-2.693" transform="translate(-4.38 -1.377)" fill="#8EC68E"/>
      <path d="M10.487,0A1.936,1.936,0,0,0,8.8,1.464a.216.216,0,0,0,.09.25,2.984,2.984,0,0,1,.5.43.211.211,0,0,0,.3.021,2.492,2.492,0,0,1,2.526-.308l.042-.038C12.021.766,11.322,0,10.487,0" transform="translate(-3.863 0)" fill="#8EC68E"/>
      <path d="M7.738,14.625a7.773,7.773,0,0,1-1.005.118.253.253,0,0,0-.242.251v7.842a3.176,3.176,0,0,0,.945,2.258.3.3,0,0,0,.519-.207V14.8a.182.182,0,0,0-.218-.179" transform="translate(-2.852 -6.425)" fill="#8EC68E"/>
      <path d="M11.937,13.436a1.727,1.727,0,0,1-.251-.154.378.378,0,0,0-.533.007,2.044,2.044,0,0,1-.372.265.491.491,0,0,0-.238.429V24.895a.371.371,0,0,0,.4.386,5.07,5.07,0,0,0,.622-.012.505.505,0,0,0,.434-.5v-11.2a.121.121,0,0,0-.067-.122" transform="translate(-4.633 -5.789)" fill="#8EC68E"/>
      <path d="M15.608,14.724a3.932,3.932,0,0,1-.783-.162.179.179,0,0,0-.237.168V25.059a.183.183,0,0,0,.3.138,2.929,2.929,0,0,0,1.038-2.238V15.1a.367.367,0,0,0-.321-.371" transform="translate(-6.411 -6.395)" fill="#8EC68E"/>
    </g>
  </g>
</svg>