<svg id="icon-mustard-allergens" xmlns="http://www.w3.org/2000/svg" xmlns:xlink="http://www.w3.org/1999/xlink" width="30" height="30" viewBox="0 0 30 30">
  <defs>
    <clipPath id="clip-path">
      <rect id="Rectangle_18" data-name="Rectangle 18" width="30" height="30" fill="none"/>
    </clipPath>
    <clipPath id="clip-path-2">
      <rect id="Rectangle_34" data-name="Rectangle 34" width="10.166" height="19.426" fill="none"/>
    </clipPath>
  </defs>
  <g id="Group_17" data-name="Group 17" clip-path="url(#clip-path)">
    <g id="Group_49" data-name="Group 49" transform="translate(9.917 5.287)">
      <g id="Group_48" data-name="Group 48" transform="translate(0 0)" clip-path="url(#clip-path-2)">
        <path id="Path_222" data-name="Path 222" d="M8.577,23.879H1.588A1.588,1.588,0,0,1,0,22.291V12.624a1.588,1.588,0,0,1,1.588-1.588H8.577a1.588,1.588,0,0,1,1.588,1.588v9.666a1.588,1.588,0,0,1-1.588,1.588" transform="translate(0 -4.454)" fill="#DBCCA5"/>
        <path id="Path_223" data-name="Path 223" d="M8.563,3.682H7.679a.3.3,0,0,1-.29-.231L6.686.325A.417.417,0,0,0,6.28,0H5.835a.416.416,0,0,0-.407.33L4.765,3.447a.3.3,0,0,1-.29.235H3.6a.925.925,0,0,0-.926.926v.854a.3.3,0,0,0,.3.3H9.186a.3.3,0,0,0,.3-.3V4.608a.926.926,0,0,0-.926-.926" transform="translate(-1.078 0)" fill="#DBCCA5"/>
      </g>
    </g>
  </g>
</svg>