<svg id="icon-shellfish-allergens" xmlns="http://www.w3.org/2000/svg" xmlns:xlink="http://www.w3.org/1999/xlink" width="30" height="30" viewBox="0 0 30 30">
  <defs>
    <clipPath id="clip-path">
      <rect id="Rectangle_11" data-name="Rectangle 11" width="30" height="30" fill="none"/>
    </clipPath>
    <clipPath id="clip-path-2">
      <rect id="Rectangle_38" data-name="Rectangle 38" width="18.148" height="14.443" fill="none"/>
    </clipPath>
  </defs>
  <g id="Group_3" data-name="Group 3" clip-path="url(#clip-path)">
    <g id="Group_57" data-name="Group 57" transform="translate(5.797 8.634)">
      <g id="Group_56" data-name="Group 56" transform="translate(0 0)" clip-path="url(#clip-path-2)">
        <path id="Path_235" data-name="Path 235" d="M14.247,7.1A3.278,3.278,0,0,0,16.133,4.54,2.64,2.64,0,0,0,17.5.245a.486.486,0,0,0-.737.026L15.505,2.308,14.337.206A.484.484,0,0,0,13.6.137,2.639,2.639,0,0,0,14.4,4.37a1.233,1.233,0,0,1-.524.895,2.912,2.912,0,0,0-2.522-1.453H6.714A2.91,2.91,0,0,0,4.22,5.219a1.2,1.2,0,0,1-.471-.849A2.639,2.639,0,0,0,4.543.137a.484.484,0,0,0-.732.069l-1.168,2.1L1.38.272A.486.486,0,0,0,.643.245,2.64,2.64,0,0,0,2.015,4.54a3.237,3.237,0,0,0,1.8,2.514c0,.011,0,.022,0,.034l.159,1.288a5.445,5.445,0,0,0-2.916,2.812.779.779,0,0,0,.4,1.028.767.767,0,0,0,.315.067.779.779,0,0,0,.713-.464,3.822,3.822,0,0,1,1.692-1.81l.044.359a2.905,2.905,0,0,0,.388,1.12,4.359,4.359,0,0,0-1.522,1.868.779.779,0,0,0,.407,1.024.764.764,0,0,0,.308.064.778.778,0,0,0,.716-.47A2.9,2.9,0,0,1,5.775,12.59a2.893,2.893,0,0,0,1.343.339h3.793a2.9,2.9,0,0,0,1.6-.489,2.964,2.964,0,0,1,1.549,1.532.779.779,0,0,0,.716.47.767.767,0,0,0,.309-.064.779.779,0,0,0,.407-1.024,4.4,4.4,0,0,0-1.94-2.13,2.894,2.894,0,0,0,.25-.824l.086-.641A3.972,3.972,0,0,1,16.1,11.819a.779.779,0,0,0,.713.464.767.767,0,0,0,.315-.067.779.779,0,0,0,.4-1.028A5.581,5.581,0,0,0,14.1,8.18l.143-1.059c0-.006,0-.013,0-.019M6.935,6.729A.626.626,0,1,1,7.561,6.1a.627.627,0,0,1-.626.627m4.1,0a.626.626,0,1,1,.626-.627.627.627,0,0,1-.626.627" transform="translate(0 0)" fill="#DBCCA5"/>
      </g>
    </g>
  </g>
</svg>