<svg id="icon-vegan" xmlns="http://www.w3.org/2000/svg" xmlns:xlink="http://www.w3.org/1999/xlink" width="32" height="32" viewBox="0 0 32 32">
  <defs>
    <clipPath id="clip-path">
      <rect id="Rectangle_99" data-name="Rectangle 99" width="32" height="32" transform="translate(-1 -1)" fill="none"/>
    </clipPath>
    <clipPath id="clip-path-2">
      <rect id="Rectangle_86" data-name="Rectangle 86" width="16.345" height="17.163" fill="none"/>
    </clipPath>
  </defs>
  <g id="icon-vegan-2" data-name="icon-vegan" transform="translate(1 1)" clip-path="url(#clip-path)">
    <g id="Group_148" data-name="Group 148" transform="translate(6.828 6.272)">
      <g id="Group_133" data-name="Group 133" transform="translate(0 0)" clip-path="url(#clip-path-2)">
        <path id="Path_340" data-name="Path 340" d="M3.3,5.672a.626.626,0,0,0-.911.11c-1.152,1.6-4.16,6.467-.964,9.892,2.339,2.506,4.209,2.573,4.209,2.573a12.391,12.391,0,0,1-2.071-5.312s1.4,3.308,2.706,4.51A8.621,8.621,0,0,0,8.21,13.169c.158-2.113-2.1-5.09-4.907-7.5" transform="translate(0 -1.083)" fill="#AC9966"/>
        <path id="Path_341" data-name="Path 341" d="M10.52,13.193a10.344,10.344,0,0,1-.434,3.074,12.044,12.044,0,0,1,4.877-1.938,13.337,13.337,0,0,0-6.081,3.976s2.339,1.136,3.508,1A5.646,5.646,0,0,0,15.7,17.537c.546-.655,1.634-2.093,2.252-3.013a.783.783,0,0,0-.4-1.185c-1.513-.5-4.632-1.226-7.031-.146" transform="translate(-1.743 -2.479)" fill="#AC9966"/>
        <path id="Path_342" data-name="Path 342" d="M6.688,5.5A14.564,14.564,0,0,1,8.7,8.082a13.787,13.787,0,0,1,1.663-5.324,12.34,12.34,0,0,0-.733,7.012s2.355-.888,2.987-1.881a5.649,5.649,0,0,0,.7-3.685c-.166-.836-.6-2.586-.926-3.646A.783.783,0,0,0,11.222.125C9.885.989,7.357,2.955,6.688,5.5" transform="translate(-1.312 0)" fill="#AC9966"/>
      </g>
    </g>
  </g>
</svg>